<?xml version="1.0" encoding="utf-8"?>
<!-- Generator: Adobe Illustrator 27.2.0, SVG Export Plug-In . SVG Version: 6.00 Build 0)  -->
<svg version="1.1" id="Camada_1" xmlns="http://www.w3.org/2000/svg" xmlns:xlink="http://www.w3.org/1999/xlink" x="0px" y="0px"
	 viewBox="0 0 1004 822" style="enable-background:new 0 0 1004 822;" xml:space="preserve">
<style type="text/css">
	.st0{fill:#CAE8FF;}
	.st1{fill:none;stroke:#392060;stroke-miterlimit:10;}
	.st2{fill:#FFFFFF;}
	.st3{fill:#6D6D6D;}
	.st4{fill:#301C1C;}
	.st5{fill:#EAA306;}
	.st6{fill:#7293AA;}
	.st7{fill:#71839E;}
	.st8{fill:#6CB8DD;}
	.st9{fill:#F4F4F4;}
	.st10{fill:#939BC6;}
	.st11{fill:#A9D9ED;}
	.st12{fill:none;}
	.st13{fill:#382F44;}
	.st14{fill:#D6CCFF;}
	.st15{fill:#E5A923;}
	.st16{fill:#D8D8D8;}
	.st17{fill:#F4BD4D;}
	.st18{fill:#E0704C;}
	.st19{fill:#6B6B6B;}
	.st20{fill:#6896D8;}
	.st21{fill:#386EAF;}
	.st22{fill:none;stroke:#F4BD4D;stroke-miterlimit:10;}
	.st23{clip-path:url(#SVGID_00000051352948952088188850000000176933066884612749_);fill:#475B7F;}
	.st24{clip-path:url(#SVGID_00000051352948952088188850000000176933066884612749_);fill:#F0DCCB;}
	
		.st25{clip-path:url(#SVGID_00000051352948952088188850000000176933066884612749_);fill:none;stroke:#5E80CC;stroke-width:4;stroke-miterlimit:10;}
	
		.st26{clip-path:url(#SVGID_00000051352948952088188850000000176933066884612749_);fill:none;stroke:#555960;stroke-width:2;stroke-linejoin:bevel;stroke-miterlimit:10;}
	
		.st27{clip-path:url(#SVGID_00000051352948952088188850000000176933066884612749_);fill:none;stroke:#555960;stroke-width:2;stroke-miterlimit:10;}
	.st28{fill:#EF6262;}
	.st29{fill:#899ECE;}
	.st30{fill:#FFC655;}
	.st31{fill:#596C75;}
	.st32{fill:#4E1F7C;}
	.st33{fill:#221C38;}
	.st34{fill:#68738E;}
	.st35{fill:#CCCCCC;}
	.st36{fill:#3A4468;}
	.st37{fill:none;stroke:#B3E2FF;stroke-miterlimit:10;}
	.st38{fill:#080523;}
	.st39{fill:#1E1D33;}
	.st40{fill:#98CBEA;}
	.st41{fill:#92CEFF;}
	.st42{fill:none;stroke:#CECECE;stroke-miterlimit:10;}
	.st43{fill:#0F0D35;}
	.st44{fill:#F7D33E;}
	.st45{fill:#EF977F;}
	.st46{fill:#FFB850;}
	.st47{fill:#29222B;}
	.st48{fill:#EFEFEF;}
	.st49{fill:#F4CB78;}
	.st50{fill:#050500;}
	.st51{fill:none;stroke:#FFC127;stroke-width:4;stroke-miterlimit:10;}
	.st52{fill:none;stroke:#FFC127;stroke-width:4;stroke-miterlimit:10;stroke-dasharray:2.0586,2.0586;}
	.st53{fill:none;stroke:#FFC127;stroke-width:4;stroke-miterlimit:10;stroke-dasharray:2.0618,2.0618;}
	.st54{fill:none;stroke:#FFC127;stroke-width:4;stroke-miterlimit:10;stroke-dasharray:1.9952,1.9952;}
	.st55{fill:none;stroke:#FFC127;stroke-width:4;stroke-miterlimit:10;stroke-dasharray:1.9979,1.9979;}
</style>
<g id="API">
	<path class="st0" d="M535,75.29l15.98-7.44c-0.73-7.78-0.75-7.8-1.48-15.56l-17.09-4.31c-2.3-4.35-3.46-6.54-5.76-10.88l6.03-16.57
		c-6.02-4.97-6.03-4.98-12.05-9.96l-15.14,9.03c-4.69-1.45-7.06-2.17-11.77-3.62L486.27,0c-7.78,0.73-7.8,0.75-15.56,1.48
		l-4.31,17.09c-4.35,2.3-6.54,3.46-10.88,5.76l-16.57-6.03c-4.97,6.02-4.98,6.03-9.96,12.05l9.03,15.14
		c-1.45,4.69-2.17,7.06-3.62,11.77l-15.98,7.44c0.73,7.78,0.75,7.8,1.48,15.56l17.08,4.31c2.31,4.35,3.47,6.54,5.77,10.88
		l-6.03,16.57c6.02,4.97,6.03,4.98,12.05,9.96l15.14-9.03c4.69,1.45,7.06,2.17,11.77,3.62l7.44,15.98c7.78-0.73,7.8-0.75,15.56-1.48
		l4.31-17.09c4.35-2.3,6.54-3.46,10.88-5.76l16.56,6.03c4.98-6.02,4.99-6.03,9.97-12.05l-9.03-15.14
		C532.83,82.37,533.55,80,535,75.29z M484.64,103.97c-20.94,0-37.93-16.99-37.93-37.93c0-20.95,16.99-37.93,37.93-37.93
		c20.94,0,37.93,16.99,37.93,37.93C522.57,86.98,505.59,103.97,484.64,103.97z"/>
	<circle class="st1" cx="484.65" cy="66.05" r="42.72"/>
	<path class="st0" d="M576.17,147.64l6.9-3.21c-0.32-3.36-0.32-3.37-0.64-6.72l-7.38-1.86c-0.99-1.88-1.49-2.82-2.49-4.7l2.6-7.15
		c-2.6-2.14-2.6-2.15-5.2-4.3l-6.53,3.9c-2.03-0.62-3.05-0.94-5.08-1.56l-3.21-6.9c-3.36,0.32-3.37,0.32-6.72,0.64l-1.86,7.38
		c-1.88,0.99-2.82,1.49-4.7,2.49l-7.15-2.6c-2.14,2.6-2.15,2.6-4.3,5.2l3.9,6.54c-0.62,2.03-0.94,3.05-1.56,5.08l-6.9,3.21
		c0.32,3.36,0.32,3.37,0.64,6.72l7.37,1.86c1,1.88,1.5,2.82,2.49,4.7l-2.6,7.15c2.6,2.14,2.6,2.15,5.2,4.3l6.53-3.9
		c2.03,0.62,3.05,0.94,5.08,1.56l3.21,6.9c3.36-0.32,3.37-0.32,6.72-0.64l1.86-7.38c1.88-0.99,2.82-1.49,4.7-2.49l7.15,2.6
		c2.15-2.6,2.15-2.6,4.3-5.2l-3.9-6.53C575.23,150.69,575.54,149.67,576.17,147.64z M554.43,160.02c-9.04,0-16.38-7.33-16.38-16.38
		c0-9.04,7.33-16.38,16.38-16.38s16.38,7.33,16.38,16.38C570.81,152.69,563.47,160.02,554.43,160.02z"/>
	<circle class="st1" cx="554.43" cy="143.65" r="18.44"/>
	<path class="st0" d="M635.05,83.51l10.45-4.87c-0.48-5.08-0.49-5.1-0.97-10.18l-11.18-2.82c-1.5-2.84-2.26-4.28-3.77-7.12
		l3.95-10.84c-3.94-3.25-3.95-3.26-7.88-6.51l-9.9,5.91c-3.07-0.95-4.62-1.42-7.7-2.36l-4.87-10.45c-5.08,0.48-5.1,0.49-10.18,0.97
		l-2.82,11.18c-2.84,1.5-4.28,2.26-7.12,3.77l-10.84-3.95c-3.25,3.94-3.26,3.95-6.51,7.88l5.91,9.9c-0.95,3.07-1.42,4.62-2.36,7.7
		l-10.45,4.87c0.48,5.08,0.49,5.1,0.97,10.18l11.17,2.82c1.51,2.84,2.27,4.28,3.77,7.12l-3.95,10.84c3.94,3.25,3.95,3.26,7.88,6.51
		l9.9-5.91c3.07,0.95,4.62,1.42,7.7,2.36l4.87,10.45c5.08-0.48,5.1-0.49,10.18-0.97l2.82-11.18c2.84-1.5,4.28-2.26,7.12-3.77
		l10.83,3.95c3.26-3.94,3.26-3.95,6.52-7.88l-5.91-9.9C633.63,88.14,634.1,86.59,635.05,83.51z M602.12,102.26
		c-13.7,0-24.8-11.11-24.8-24.8c0-13.7,11.11-24.8,24.8-24.8s24.8,11.11,24.8,24.8C626.93,91.15,615.82,102.26,602.12,102.26z"/>
	<circle class="st1" cx="602.12" cy="77.46" r="27.93"/>
	<g>
		<path class="st2" d="M455.22,76.06c1.14-2.01,2.47-4.5,4-7.46l4.31-8.27c1.34-2.56,2.46-4.77,3.34-6.64
			c1.42,0.02,2.42,0.03,3.01,0.03c1.04,0,2.05-0.01,3.05-0.03l2.34,6.7l5.09,13.86l0.7,1.8l-2.45-0.03c-0.57,0-1.52,0.01-2.86,0.03
			c-0.26-0.97-0.68-2.28-1.24-3.93s-1.04-2.99-1.44-4.01h-8.62c-1.28,2.6-2.52,5.25-3.73,7.95l-2.67-0.03
			C457.56,76.03,456.61,76.04,455.22,76.06z M465.92,64.71h6.28l-2.58-7.58l-1.33,2.76L465.92,64.71z"/>
		<path class="st2" d="M483.49,76.06l0.3-3.88l0.41-8.6l0.2-6.24c0.01-0.57,0.02-1.14,0.02-1.72c0-0.43-0.01-1.07-0.02-1.92
			c1.4,0.02,2.53,0.03,3.41,0.03c0.7,0,1.67-0.02,2.92-0.05c1.25-0.03,2.23-0.05,2.97-0.05c1.51,0,2.62,0.11,3.33,0.33
			c0.75,0.24,1.41,0.62,1.98,1.13c0.57,0.51,1,1.13,1.29,1.85c0.33,0.81,0.49,1.68,0.49,2.61c0,1.41-0.35,2.69-1.06,3.84
			c-0.7,1.15-1.68,2.01-2.92,2.58c-1.25,0.57-2.63,0.85-4.15,0.85c-0.74,0-1.53-0.08-2.38-0.23c-0.24-1.14-0.51-2.2-0.82-3.2
			c0.68,0.14,1.35,0.21,2.01,0.21c0.9,0,1.69-0.14,2.35-0.41c0.66-0.27,1.19-0.72,1.59-1.34c0.39-0.62,0.59-1.31,0.59-2.09
			c0-0.46-0.08-0.88-0.25-1.26s-0.4-0.69-0.71-0.92c-0.31-0.23-0.65-0.38-1.03-0.47S493.09,57,492.39,57
			c-0.61,0-1.23,0.01-1.85,0.03c-0.62,0.02-1.17,0.03-1.65,0.03c-0.13,2.14-0.23,4.19-0.29,6.14l-0.2,6.26
			c-0.06,2.22-0.1,3.85-0.1,4.88c0,0.39,0.01,0.96,0.02,1.7l-2.38-0.03C485.64,76.03,484.82,76.04,483.49,76.06z"/>
		<path class="st2" d="M503.25,76.06c0.26-3.76,0.47-7.61,0.64-11.56c0.16-3.95,0.24-6.97,0.24-9.05l-0.02-1.75l2.74,0.03
			c0.15,0,0.99-0.01,2.51-0.03c-0.45,5.75-0.73,13.2-0.85,22.37l-2.41-0.03C505.7,76.03,504.75,76.04,503.25,76.06z"/>
	</g>
</g>
<path class="st3" d="M26,351.5h-1.5v-0.03C25,351.49,25.5,351.5,26,351.5z"/>
<g id="NUVEM">
	<path class="st2" d="M232,298.71c0,15.35-12.44,27.79-27.79,27.79H33.22c-0.35,0-0.7-0.01-1.06-0.02
		C14.58,325.92,0.5,311.5,0.5,293.78c0-17.32,13.47-31.51,30.51-32.64c-1.08-3.59-1.66-7.4-1.66-11.34c0-21.76,17.64-39.4,39.4-39.4
		c9.24,0,17.73,3.18,24.45,8.51c4.71-2.73,10.18-4.29,16.01-4.29c16.08,0,29.38,11.85,31.67,27.29c4.78-3.03,10.45-4.78,16.53-4.78
		c17.1,0,30.96,13.86,30.96,30.96c0,3-0.43,5.91-1.23,8.66c4.71-3.67,10.63-5.85,17.06-5.85C219.56,270.91,232,283.35,232,298.71z"
		/>
	<g>
		<path class="st4" d="M53.9,291.71c1.22-2.16,2.65-4.82,4.29-8l4.63-8.88c1.44-2.74,2.64-5.12,3.59-7.12
			c1.52,0.02,2.6,0.04,3.23,0.04c1.11,0,2.2-0.01,3.27-0.04l2.51,7.19l5.46,14.87l0.76,1.93L79,291.67c-0.61,0-1.63,0.01-3.07,0.04
			c-0.28-1.04-0.73-2.45-1.33-4.22c-0.6-1.77-1.12-3.21-1.54-4.31h-9.25c-1.37,2.79-2.71,5.63-4,8.53l-2.87-0.04
			C56.4,291.67,55.38,291.68,53.9,291.71z M65.37,279.52h6.74l-2.77-8.14l-1.42,2.96L65.37,279.52z"/>
		<path class="st4" d="M91.19,291.71c-2.87-8.06-5.86-16.06-8.95-23.99c1.12,0.02,2.04,0.04,2.74,0.04c0.77,0,1.69-0.01,2.74-0.04
			l4.92,14.54l2.06,5.73c0.45-0.87,1.12-2.26,2.01-4.17c0.9-1.91,1.54-3.33,1.93-4.24c-0.54-1.64-1.22-3.62-2.05-5.96
			s-1.55-4.3-2.17-5.9c1,0.02,1.87,0.04,2.62,0.04c0.83,0,1.7-0.01,2.62-0.04c0.55,2.12,1.17,4.22,1.84,6.29
			c0.98-2.12,1.88-4.22,2.69-6.29c1.02,0.02,1.84,0.04,2.46,0.04c0.71,0,1.54-0.01,2.46-0.04c-0.75,1.5-1.68,3.42-2.79,5.75
			c-1.11,2.33-2,4.28-2.68,5.83c0.26,0.84,0.74,2.28,1.45,4.29c0.71,2.02,1.23,3.44,1.55,4.27l4.72-10.06l3.42-7.52l1.12-2.57
			c1.13,0.02,2.03,0.04,2.71,0.04c0.75,0,1.66-0.01,2.73-0.04l-3.3,6.56l-6.9,14.17l-1.55,3.27c-1.25-0.02-2.33-0.04-3.22-0.04
			c-0.94,0-2.02,0.01-3.23,0.04c-0.69-2.36-1.46-4.68-2.29-6.96c-1.11,2.28-2.16,4.6-3.16,6.96c-1.25-0.02-2.34-0.04-3.25-0.04
			C93.48,291.67,92.39,291.68,91.19,291.71z"/>
		<path class="st4" d="M121.47,291.2c-0.09-1.78-0.22-3.23-0.37-4.36c2.3,1.04,4.38,1.56,6.26,1.56c0.75,0,1.45-0.11,2.1-0.34
			s1.13-0.55,1.44-0.97s0.47-0.88,0.47-1.4c0-0.4-0.07-0.76-0.22-1.07c-0.22-0.43-0.6-0.88-1.12-1.35
			c-0.67-0.64-1.86-1.71-3.59-3.18c-0.82-0.71-1.39-1.22-1.7-1.53c-0.7-0.67-1.24-1.27-1.62-1.8s-0.64-1.06-0.81-1.59
			s-0.25-1.09-0.25-1.69c0-1.1,0.31-2.14,0.92-3.1s1.54-1.72,2.76-2.27s2.77-0.82,4.63-0.82c1.68,0,3.56,0.21,5.66,0.62
			c0.06,1.22,0.18,2.61,0.35,4.18c-1.82-0.7-3.51-1.05-5.05-1.05c-1.15,0-2.08,0.26-2.82,0.78c-0.73,0.52-1.1,1.13-1.1,1.82
			c0,0.19,0.03,0.38,0.08,0.59c0.05,0.21,0.13,0.4,0.23,0.6s0.28,0.45,0.54,0.76c0.26,0.31,0.64,0.67,1.15,1.09s0.93,0.75,1.29,1.01
			l2.17,1.97c0.55,0.46,1.04,0.9,1.47,1.34s0.8,0.85,1.11,1.25c0.31,0.4,0.55,0.78,0.73,1.14c0.18,0.36,0.31,0.74,0.4,1.12
			c0.09,0.38,0.13,0.78,0.13,1.2c0,0.98-0.23,1.91-0.69,2.79s-1.11,1.59-1.97,2.15s-1.79,0.95-2.81,1.17s-2.1,0.33-3.23,0.33
			c-0.75,0-1.62-0.06-2.62-0.19S123.1,291.56,121.47,291.2z"/>
	</g>
	<rect x="43" y="298" class="st5" width="110" height="3"/>
</g>
<g id="MONITOR_COMPLETO">
	<g id="MONITOR">
		<rect x="506.67" y="734.28" class="st6" width="55.11" height="47.33"/>
		<path class="st6" d="M508.78,780.33h51c0.96,0,1.88,0.33,2.63,0.93l22.25,17.95c3.07,2.48,1.32,7.44-2.63,7.44h-95.5
			c-3.94,0-5.7-4.96-2.63-7.44l22.25-17.95C506.89,780.66,507.82,780.33,508.78,780.33z"/>
		<g>
			<path class="st7" d="M693.38,735H375.06c-7.16,0-12.96-5.8-12.96-12.96V518.96c0-7.16,5.8-12.96,12.96-12.96h318.32
				c7.16,0,12.96,5.8,12.96,12.96v203.08C706.34,729.2,700.54,735,693.38,735z"/>
		</g>
		<path class="st8" d="M686.85,538.46v143.56c0,8.05-6.52,14.58-14.58,14.58H396.16c-8.05,0-14.58-6.53-14.58-14.58V538.46
			c0-8.05,6.53-14.58,14.58-14.58h276.12C680.34,523.89,686.85,530.42,686.85,538.46z"/>
		<path class="st9" d="M614.65,807.93H450.89v-4.16c0-1.24,1-2.24,2.24-2.24h159.28c1.24,0,2.24,1,2.24,2.24V807.93z"/>
		<path class="st10" d="M662.46,822H403.09c-2.43,0-4.4-1.97-4.4-4.4v-6.15c0-2.43,1.97-4.4,4.4-4.4h259.37c2.43,0,4.4,1.97,4.4,4.4
			v6.15C666.86,820.03,664.89,822,662.46,822z"/>
		<path class="st11" d="M686.85,538.46v143.56c0,8.05-6.52,14.58-14.58,14.58h-159.6c-53.42-24.32-89.25-69.25-89.25-120.64
			c0-18.41,4.59-35.98,12.94-52.08h235.9C680.34,523.89,686.85,530.42,686.85,538.46z"/>
	</g>
	<g id="SIDE_MENU">
		<path class="st12" d="M672.64,686.74H405.65c-3.7,0-6.71-3-6.71-6.71V539.52c0-3.7,3-6.71,6.71-6.71h266.99
			c3.7,0,6.71,3,6.71,6.71v140.51C679.35,683.73,676.35,686.74,672.64,686.74z"/>
		<path class="st13" d="M448.27,686.74H405.7c-3.73,0-6.75-3.02-6.75-6.75V539.57c0-3.73,3.02-6.75,6.75-6.75h42.58
			c3.73,0,6.75,3.02,6.75,6.75v140.42C455.03,683.71,452,686.74,448.27,686.74z"/>
		<path class="st14" d="M449.2,596.05h-30.53c-0.58,0-1.05-0.47-1.05-1.05v-5.06c0-0.58,0.47-1.05,1.05-1.05h30.53
			c0.58,0,1.05,0.47,1.05,1.05V595C450.25,595.58,449.78,596.05,449.2,596.05z"/>
		<path class="st15" d="M422.64,571h-15.17c-1.41,0-2.56-1.15-2.56-2.56v-25.9c0-1.41,1.15-2.56,2.56-2.56h15.17
			c1.41,0,2.56,1.15,2.56,2.56v25.9C425.2,569.85,424.05,571,422.64,571z"/>
		<path class="st14" d="M448.96,545.94h-18.88c-0.72,0-1.3-0.58-1.3-1.3v-3.37c0-0.72,0.58-1.3,1.3-1.3h18.88
			c0.72,0,1.3,0.58,1.3,1.3v3.37C450.25,545.36,449.67,545.94,448.96,545.94z"/>
		<path class="st14" d="M444.18,555.49h-14.11c-0.72,0-1.3-0.58-1.3-1.3v-3.37c0-0.72,0.58-1.3,1.3-1.3h14.11
			c0.72,0,1.3,0.58,1.3,1.3v3.37C445.48,554.9,444.9,555.49,444.18,555.49z"/>
		<path class="st14" d="M444.18,565.03h-14.11c-0.72,0-1.3-0.58-1.3-1.3v-3.37c0-0.72,0.58-1.3,1.3-1.3h14.11
			c0.72,0,1.3,0.58,1.3,1.3v3.37C445.48,564.45,444.9,565.03,444.18,565.03z"/>
		<rect x="398.94" y="576.96" class="st16" width="56.08" height="1.19"/>
		<path class="st14" d="M413.56,596.05h-7.74c-0.5,0-0.9-0.4-0.9-0.9v-5.36c0-0.5,0.4-0.9,0.9-0.9h7.74c0.5,0,0.9,0.4,0.9,0.9v5.36
			C414.46,595.65,414.05,596.05,413.56,596.05z"/>
		<path class="st14" d="M449.2,605.6h-30.53c-0.58,0-1.05-0.47-1.05-1.05v-5.06c0-0.58,0.47-1.05,1.05-1.05h30.53
			c0.58,0,1.05,0.47,1.05,1.05v5.06C450.25,605.13,449.78,605.6,449.2,605.6z"/>
		<path class="st14" d="M413.56,605.6h-7.74c-0.5,0-0.9-0.4-0.9-0.9v-5.36c0-0.5,0.4-0.9,0.9-0.9h7.74c0.5,0,0.9,0.4,0.9,0.9v5.36
			C414.46,605.2,414.05,605.6,413.56,605.6z"/>
		<path class="st14" d="M449.2,615.15h-30.53c-0.58,0-1.05-0.47-1.05-1.05v-5.06c0-0.58,0.47-1.05,1.05-1.05h30.53
			c0.58,0,1.05,0.47,1.05,1.05v5.06C450.25,614.68,449.78,615.15,449.2,615.15z"/>
		<path class="st14" d="M413.56,615.15h-7.74c-0.5,0-0.9-0.4-0.9-0.9v-5.36c0-0.5,0.4-0.9,0.9-0.9h7.74c0.5,0,0.9,0.4,0.9,0.9v5.36
			C414.46,614.74,414.05,615.15,413.56,615.15z"/>
		<path class="st14" d="M449.2,624.69h-30.53c-0.58,0-1.05-0.47-1.05-1.05v-5.06c0-0.58,0.47-1.05,1.05-1.05h30.53
			c0.58,0,1.05,0.47,1.05,1.05v5.06C450.25,624.22,449.78,624.69,449.2,624.69z"/>
		<path class="st14" d="M413.56,624.69h-7.74c-0.5,0-0.9-0.4-0.9-0.9v-5.36c0-0.5,0.4-0.9,0.9-0.9h7.74c0.5,0,0.9,0.4,0.9,0.9v5.36
			C414.46,624.29,414.05,624.69,413.56,624.69z"/>
		<path class="st14" d="M449.2,634.24h-30.53c-0.58,0-1.05-0.47-1.05-1.05v-5.06c0-0.58,0.47-1.05,1.05-1.05h30.53
			c0.58,0,1.05,0.47,1.05,1.05v5.06C450.25,633.77,449.78,634.24,449.2,634.24z"/>
		<path class="st14" d="M413.56,634.24h-7.74c-0.5,0-0.9-0.4-0.9-0.9v-5.36c0-0.5,0.4-0.9,0.9-0.9h7.74c0.5,0,0.9,0.4,0.9,0.9v5.36
			C414.46,633.83,414.05,634.24,413.56,634.24z"/>
		<rect x="398.94" y="637.82" class="st17" width="56.08" height="15.51"/>
		<path class="st18" d="M441.93,647.36h-29.88c-0.65,0-1.17-0.52-1.17-1.17v-2.44c0-0.65,0.52-1.17,1.17-1.17h29.88
			c0.65,0,1.17,0.52,1.17,1.17v2.44C443.09,646.84,442.57,647.36,441.93,647.36z"/>
	</g>
	<g id="LINE_CHART">
		<path class="st19" d="M559.64,611.56h-81.67c-2.3,0-4.17-1.87-4.17-4.17V565.6c0-2.3,1.87-4.17,4.17-4.17h81.67
			c2.3,0,4.17,1.87,4.17,4.17v41.79C563.8,609.69,561.94,611.56,559.64,611.56z"/>
		<path class="st20" d="M485.05,561.44h-7.1c-2.29,0-4.15,1.86-4.15,4.15v41.82c0,2.29,1.86,4.15,4.15,4.15h7.1V561.44z"/>
		<rect x="496.3" y="561.44" class="st20" width="11.25" height="50.12"/>
		<rect x="518.8" y="561.44" class="st20" width="11.25" height="50.12"/>
		<rect x="541.3" y="561.44" class="st20" width="11.25" height="50.12"/>
		<rect x="485.05" y="561.44" class="st21" width="11.25" height="50.12"/>
		<rect x="507.55" y="561.44" class="st21" width="11.25" height="50.12"/>
		<rect x="530.05" y="561.44" class="st21" width="11.25" height="50.12"/>
		<path class="st21" d="M559.8,561.44h-7.25v50.12h7.25c2.21,0,4-1.79,4-4v-42.11C563.8,563.23,562.01,561.44,559.8,561.44z"/>
		<polyline class="st22" points="481.23,591.84 492.76,599.23 500.99,587.81 507.55,596.16 522.08,576.64 528.65,594.71 
			533.87,588.96 537.54,591.84 541.3,584.15 547.4,594.71 554.9,573.35 		"/>
	</g>
	<g id="GEO_MAP">
		<g>
			<defs>
				<path id="SVGID_1_" d="M664.16,623.85H589.2c-2.68,0-4.85-2.17-4.85-4.85v-77.78c0-2.68,2.17-4.85,4.85-4.85h74.96
					c2.68,0,4.85,2.17,4.85,4.85V619C669.01,621.68,666.84,623.85,664.16,623.85z"/>
			</defs>
			<clipPath id="SVGID_00000072244615587167023640000003937644970068987058_">
				<use xlink:href="#SVGID_1_"  style="overflow:visible;"/>
			</clipPath>
			
				<rect x="584.35" y="536.37" style="clip-path:url(#SVGID_00000072244615587167023640000003937644970068987058_);fill:#475B7F;" width="84.66" height="87.48"/>
			<path style="clip-path:url(#SVGID_00000072244615587167023640000003937644970068987058_);fill:#F0DCCB;" d="M669.01,623.85
				h-84.66c0-26.13,0-52.26,0-78.38c0-3.03,0-6.07,0-9.1c28.22,0,56.44,0,84.66,0V623.85z"/>
			
				<path style="clip-path:url(#SVGID_00000072244615587167023640000003937644970068987058_);fill:none;stroke:#5E80CC;stroke-width:4;stroke-miterlimit:10;" d="
				M659.34,540.14l-5.63,9.35c-1.54,2.56-4.16,4.5-7.3,5.39l-18.93,5.39c-2.77,0.79-5.17,2.33-6.86,4.41l-15.35,18.84
				c-1.42,1.74-2.35,3.76-2.72,5.88l-7.84,41.3"/>
			
				<line style="clip-path:url(#SVGID_00000072244615587167023640000003937644970068987058_);fill:none;stroke:#5E80CC;stroke-width:4;stroke-miterlimit:10;" x1="664.69" y1="531.81" x2="659.34" y2="540.14"/>
			
				<polyline style="clip-path:url(#SVGID_00000072244615587167023640000003937644970068987058_);fill:none;stroke:#555960;stroke-width:2;stroke-linejoin:bevel;stroke-miterlimit:10;" points="
				675.06,562.23 645.75,586.52 580.03,543.98 			"/>
			
				<polyline style="clip-path:url(#SVGID_00000072244615587167023640000003937644970068987058_);fill:none;stroke:#555960;stroke-width:2;stroke-miterlimit:10;" points="
				645.75,586.52 634.97,606.41 673.33,618.53 			"/>
			
				<line style="clip-path:url(#SVGID_00000072244615587167023640000003937644970068987058_);fill:none;stroke:#555960;stroke-width:2;stroke-miterlimit:10;" x1="634.97" y1="606.41" x2="624.09" y2="629.94"/>
			
				<polyline style="clip-path:url(#SVGID_00000072244615587167023640000003937644970068987058_);fill:none;stroke:#555960;stroke-width:2;stroke-miterlimit:10;" points="
				604.55,559.87 615.88,547.4 599.03,532.57 			"/>
			
				<line style="clip-path:url(#SVGID_00000072244615587167023640000003937644970068987058_);fill:none;stroke:#555960;stroke-width:2;stroke-miterlimit:10;" x1="615.88" y1="547.4" x2="636.18" y2="531.81"/>
		</g>
		<path class="st28" d="M638.24,569.21c0-1.52-1.42-2.75-3.18-2.75c-1.76,0-3.18,1.23-3.18,2.75c0,0.8,0.39,1.51,1.02,2.02
			c0.44,0.95,1.12,2.03,2.16,2.8l0.05-0.03c1.02-0.77,1.7-1.84,2.14-2.79C637.85,570.7,638.24,569.99,638.24,569.21z M635.06,567.3
			c1.21,0,2.2,0.86,2.2,1.91c0,1.05-0.99,1.91-2.2,1.91s-2.2-0.86-2.2-1.91C632.85,568.16,633.84,567.3,635.06,567.3z"/>
		<path class="st28" d="M599.62,544.76c0-1.52-1.42-2.75-3.18-2.75c-1.76,0-3.18,1.23-3.18,2.75c0,0.8,0.39,1.51,1.02,2.02
			c0.44,0.95,1.12,2.03,2.16,2.8l0.05-0.03c1.02-0.77,1.7-1.84,2.14-2.79C599.24,546.26,599.62,545.55,599.62,544.76z
			 M596.44,542.86c1.21,0,2.2,0.86,2.2,1.91c0,1.05-0.99,1.91-2.2,1.91c-1.21,0-2.2-0.86-2.2-1.91
			C594.24,543.71,595.22,542.86,596.44,542.86z"/>
		<path class="st28" d="M624.87,614.24c0-1.52-1.42-2.75-3.18-2.75c-1.76,0-3.18,1.23-3.18,2.75c0,0.8,0.39,1.51,1.02,2.02
			c0.44,0.95,1.12,2.03,2.16,2.8l0.05-0.03c1.02-0.77,1.7-1.84,2.14-2.79C624.49,615.73,624.87,615.02,624.87,614.24z
			 M621.69,612.33c1.21,0,2.2,0.86,2.2,1.91s-0.99,1.91-2.2,1.91s-2.2-0.86-2.2-1.91S620.47,612.33,621.69,612.33z"/>
		<path class="st28" d="M653.09,602.66c0-1.52-1.42-2.75-3.18-2.75c-1.76,0-3.18,1.23-3.18,2.75c0,0.8,0.39,1.51,1.02,2.02
			c0.44,0.95,1.12,2.03,2.16,2.8l0.05-0.03c1.02-0.77,1.7-1.84,2.14-2.79C652.71,604.15,653.09,603.44,653.09,602.66z
			 M649.91,600.75c1.21,0,2.2,0.86,2.2,1.91s-0.99,1.91-2.2,1.91s-2.2-0.86-2.2-1.91S648.69,600.75,649.91,600.75z"/>
	</g>
	<g id="TABLE">
		<path class="st29" d="M559.17,680.4h-79.64c-3.77,0-6.83-3.06-6.83-6.83v-44.12c0-3.77,3.06-6.83,6.83-6.83h79.64
			c3.77,0,6.83,3.06,6.83,6.83v44.12C566,677.35,562.94,680.4,559.17,680.4z"/>
		<path class="st30" d="M489.4,634.46h-9.17c-0.69,0-1.25-0.56-1.25-1.25v-2.38c0-0.69,0.56-1.25,1.25-1.25h9.17
			c0.69,0,1.25,0.56,1.25,1.25v2.38C490.64,633.9,490.08,634.46,489.4,634.46z"/>
		<path class="st30" d="M518.1,634.46h-24.42c-0.69,0-1.25-0.56-1.25-1.25v-2.38c0-0.69,0.56-1.25,1.25-1.25h24.42
			c0.69,0,1.25,0.56,1.25,1.25v2.38C519.35,633.9,518.79,634.46,518.1,634.46z"/>
		<path class="st30" d="M533.35,634.46h-10.96c-0.69,0-1.25-0.56-1.25-1.25v-2.38c0-0.69,0.56-1.25,1.25-1.25h10.96
			c0.69,0,1.25,0.56,1.25,1.25v2.38C534.6,633.9,534.04,634.46,533.35,634.46z"/>
		<path class="st30" d="M546.81,634.46h-9.17c-0.69,0-1.25-0.56-1.25-1.25v-2.38c0-0.69,0.56-1.25,1.25-1.25h9.17
			c0.69,0,1.25,0.56,1.25,1.25v2.38C548.06,633.9,547.5,634.46,546.81,634.46z"/>
		<path class="st30" d="M556.68,634.46h-5.58c-0.69,0-1.25-0.56-1.25-1.25v-2.38c0-0.69,0.56-1.25,1.25-1.25h5.58
			c0.69,0,1.25,0.56,1.25,1.25v2.38C557.92,633.9,557.37,634.46,556.68,634.46z"/>
		<path class="st2" d="M489.4,641.42h-9.17c-0.69,0-1.25-0.56-1.25-1.25v-2.38c0-0.69,0.56-1.25,1.25-1.25h9.17
			c0.69,0,1.25,0.56,1.25,1.25v2.38C490.64,640.86,490.08,641.42,489.4,641.42z"/>
		<path class="st2" d="M518.1,641.42h-24.42c-0.69,0-1.25-0.56-1.25-1.25v-2.38c0-0.69,0.56-1.25,1.25-1.25h24.42
			c0.69,0,1.25,0.56,1.25,1.25v2.38C519.35,640.86,518.79,641.42,518.1,641.42z"/>
		<path class="st2" d="M533.35,641.42h-10.96c-0.69,0-1.25-0.56-1.25-1.25v-2.38c0-0.69,0.56-1.25,1.25-1.25h10.96
			c0.69,0,1.25,0.56,1.25,1.25v2.38C534.6,640.86,534.04,641.42,533.35,641.42z"/>
		<path class="st2" d="M546.81,641.42h-9.17c-0.69,0-1.25-0.56-1.25-1.25v-2.38c0-0.69,0.56-1.25,1.25-1.25h9.17
			c0.69,0,1.25,0.56,1.25,1.25v2.38C548.06,640.86,547.5,641.42,546.81,641.42z"/>
		<path class="st2" d="M556.68,641.42h-5.58c-0.69,0-1.25-0.56-1.25-1.25v-2.38c0-0.69,0.56-1.25,1.25-1.25h5.58
			c0.69,0,1.25,0.56,1.25,1.25v2.38C557.92,640.86,557.37,641.42,556.68,641.42z"/>
		<path class="st2" d="M489.4,647.68h-9.17c-0.69,0-1.25-0.56-1.25-1.25v-2.38c0-0.69,0.56-1.25,1.25-1.25h9.17
			c0.69,0,1.25,0.56,1.25,1.25v2.38C490.64,647.12,490.08,647.68,489.4,647.68z"/>
		<path class="st2" d="M518.1,647.68h-24.42c-0.69,0-1.25-0.56-1.25-1.25v-2.38c0-0.69,0.56-1.25,1.25-1.25h24.42
			c0.69,0,1.25,0.56,1.25,1.25v2.38C519.35,647.12,518.79,647.68,518.1,647.68z"/>
		<path class="st2" d="M533.35,647.68h-10.96c-0.69,0-1.25-0.56-1.25-1.25v-2.38c0-0.69,0.56-1.25,1.25-1.25h10.96
			c0.69,0,1.25,0.56,1.25,1.25v2.38C534.6,647.12,534.04,647.68,533.35,647.68z"/>
		<path class="st2" d="M546.81,647.68h-9.17c-0.69,0-1.25-0.56-1.25-1.25v-2.38c0-0.69,0.56-1.25,1.25-1.25h9.17
			c0.69,0,1.25,0.56,1.25,1.25v2.38C548.06,647.12,547.5,647.68,546.81,647.68z"/>
		<path class="st2" d="M556.68,647.68h-5.58c-0.69,0-1.25-0.56-1.25-1.25v-2.38c0-0.69,0.56-1.25,1.25-1.25h5.58
			c0.69,0,1.25,0.56,1.25,1.25v2.38C557.92,647.12,557.37,647.68,556.68,647.68z"/>
		<path class="st2" d="M489.4,653.95h-9.17c-0.69,0-1.25-0.56-1.25-1.25v-2.38c0-0.69,0.56-1.25,1.25-1.25h9.17
			c0.69,0,1.25,0.56,1.25,1.25v2.38C490.64,653.39,490.08,653.95,489.4,653.95z"/>
		<path class="st2" d="M518.1,653.95h-24.42c-0.69,0-1.25-0.56-1.25-1.25v-2.38c0-0.69,0.56-1.25,1.25-1.25h24.42
			c0.69,0,1.25,0.56,1.25,1.25v2.38C519.35,653.39,518.79,653.95,518.1,653.95z"/>
		<path class="st2" d="M533.35,653.95h-10.96c-0.69,0-1.25-0.56-1.25-1.25v-2.38c0-0.69,0.56-1.25,1.25-1.25h10.96
			c0.69,0,1.25,0.56,1.25,1.25v2.38C534.6,653.39,534.04,653.95,533.35,653.95z"/>
		<path class="st2" d="M546.81,653.95h-9.17c-0.69,0-1.25-0.56-1.25-1.25v-2.38c0-0.69,0.56-1.25,1.25-1.25h9.17
			c0.69,0,1.25,0.56,1.25,1.25v2.38C548.06,653.39,547.5,653.95,546.81,653.95z"/>
		<path class="st2" d="M556.68,653.95h-5.58c-0.69,0-1.25-0.56-1.25-1.25v-2.38c0-0.69,0.56-1.25,1.25-1.25h5.58
			c0.69,0,1.25,0.56,1.25,1.25v2.38C557.92,653.39,557.37,653.95,556.68,653.95z"/>
		<path class="st2" d="M489.4,660.21h-9.17c-0.69,0-1.25-0.56-1.25-1.25v-2.38c0-0.69,0.56-1.25,1.25-1.25h9.17
			c0.69,0,1.25,0.56,1.25,1.25v2.38C490.64,659.66,490.08,660.21,489.4,660.21z"/>
		<path class="st2" d="M518.1,660.21h-24.42c-0.69,0-1.25-0.56-1.25-1.25v-2.38c0-0.69,0.56-1.25,1.25-1.25h24.42
			c0.69,0,1.25,0.56,1.25,1.25v2.38C519.35,659.66,518.79,660.21,518.1,660.21z"/>
		<path class="st2" d="M533.35,660.21h-10.96c-0.69,0-1.25-0.56-1.25-1.25v-2.38c0-0.69,0.56-1.25,1.25-1.25h10.96
			c0.69,0,1.25,0.56,1.25,1.25v2.38C534.6,659.66,534.04,660.21,533.35,660.21z"/>
		<path class="st2" d="M546.81,660.21h-9.17c-0.69,0-1.25-0.56-1.25-1.25v-2.38c0-0.69,0.56-1.25,1.25-1.25h9.17
			c0.69,0,1.25,0.56,1.25,1.25v2.38C548.06,659.66,547.5,660.21,546.81,660.21z"/>
		<path class="st2" d="M556.68,660.21h-5.58c-0.69,0-1.25-0.56-1.25-1.25v-2.38c0-0.69,0.56-1.25,1.25-1.25h5.58
			c0.69,0,1.25,0.56,1.25,1.25v2.38C557.92,659.66,557.37,660.21,556.68,660.21z"/>
		<path class="st2" d="M489.4,666.48h-9.17c-0.69,0-1.25-0.56-1.25-1.25v-2.38c0-0.69,0.56-1.25,1.25-1.25h9.17
			c0.69,0,1.25,0.56,1.25,1.25v2.38C490.64,665.92,490.08,666.48,489.4,666.48z"/>
		<path class="st2" d="M518.1,666.48h-24.42c-0.69,0-1.25-0.56-1.25-1.25v-2.38c0-0.69,0.56-1.25,1.25-1.25h24.42
			c0.69,0,1.25,0.56,1.25,1.25v2.38C519.35,665.92,518.79,666.48,518.1,666.48z"/>
		<path class="st2" d="M533.35,666.48h-10.96c-0.69,0-1.25-0.56-1.25-1.25v-2.38c0-0.69,0.56-1.25,1.25-1.25h10.96
			c0.69,0,1.25,0.56,1.25,1.25v2.38C534.6,665.92,534.04,666.48,533.35,666.48z"/>
		<path class="st2" d="M546.81,666.48h-9.17c-0.69,0-1.25-0.56-1.25-1.25v-2.38c0-0.69,0.56-1.25,1.25-1.25h9.17
			c0.69,0,1.25,0.56,1.25,1.25v2.38C548.06,665.92,547.5,666.48,546.81,666.48z"/>
		<path class="st2" d="M556.68,666.48h-5.58c-0.69,0-1.25-0.56-1.25-1.25v-2.38c0-0.69,0.56-1.25,1.25-1.25h5.58
			c0.69,0,1.25,0.56,1.25,1.25v2.38C557.92,665.92,557.37,666.48,556.68,666.48z"/>
		<path class="st2" d="M489.4,672.74h-9.17c-0.69,0-1.25-0.56-1.25-1.25v-2.38c0-0.69,0.56-1.25,1.25-1.25h9.17
			c0.69,0,1.25,0.56,1.25,1.25v2.38C490.64,672.19,490.08,672.74,489.4,672.74z"/>
		<path class="st2" d="M518.1,672.74h-24.42c-0.69,0-1.25-0.56-1.25-1.25v-2.38c0-0.69,0.56-1.25,1.25-1.25h24.42
			c0.69,0,1.25,0.56,1.25,1.25v2.38C519.35,672.19,518.79,672.74,518.1,672.74z"/>
		<path class="st2" d="M533.35,672.74h-10.96c-0.69,0-1.25-0.56-1.25-1.25v-2.38c0-0.69,0.56-1.25,1.25-1.25h10.96
			c0.69,0,1.25,0.56,1.25,1.25v2.38C534.6,672.19,534.04,672.74,533.35,672.74z"/>
		<path class="st2" d="M546.81,672.74h-9.17c-0.69,0-1.25-0.56-1.25-1.25v-2.38c0-0.69,0.56-1.25,1.25-1.25h9.17
			c0.69,0,1.25,0.56,1.25,1.25v2.38C548.06,672.19,547.5,672.74,546.81,672.74z"/>
		<path class="st2" d="M556.68,672.74h-5.58c-0.69,0-1.25-0.56-1.25-1.25v-2.38c0-0.69,0.56-1.25,1.25-1.25h5.58
			c0.69,0,1.25,0.56,1.25,1.25v2.38C557.92,672.19,557.37,672.74,556.68,672.74z"/>
	</g>
	<g id="BAR_x2F_PIE_CHART">
		<path class="st31" d="M661.73,683.96h-63.66c-4.73,0-8.57-3.84-8.57-8.57v-31.46c0-4.73,3.84-8.57,8.57-8.57h63.66
			c4.73,0,8.57,3.84,8.57,8.57v31.46C670.3,680.13,666.46,683.96,661.73,683.96z"/>
		<rect x="596.89" y="662.46" class="st17" width="5.04" height="15.97"/>
		<rect x="604.28" y="664.98" class="st17" width="5.04" height="13.44"/>
		<rect x="619.07" y="652.79" class="st17" width="5.04" height="25.63"/>
		<rect x="626.47" y="658.26" class="st17" width="5.04" height="20.17"/>
		<rect x="633.86" y="649.85" class="st17" width="5.04" height="28.57"/>
		<rect x="611.68" y="658.26" class="st17" width="5.04" height="20.17"/>
		<path class="st17" d="M654.1,653.99h8.74c0,4.79-3.94,8.74-8.74,8.74c-4.79,0-8.74-3.94-8.74-8.74c0-4.79,3.94-8.74,8.74-8.74
			c1.68,0,3.32,0.48,4.73,1.39L654.1,653.99z"/>
		<g>
			<path class="st18" d="M661.75,645.18L661.75,645.18c-0.01,0-0.02-0.01-0.04-0.02C661.73,645.17,661.74,645.18,661.75,645.18z"/>
			<path class="st18" d="M665.76,652.53h-8.74l4.73-7.34C664.16,646.74,665.76,649.45,665.76,652.53z"/>
		</g>
	</g>
	<g>
		<path class="st32" d="M476.86,541.93l0.17-2.26l0.13-2.82l0.08-2.81c0-0.12,0.01-0.44,0.01-0.97c0.48,0.01,0.93,0.01,1.36,0.01
			c0.32,0,0.73-0.01,1.25-0.02c0.52-0.01,0.96-0.02,1.34-0.02c0.51,0,0.98,0.03,1.42,0.09c0.43,0.06,0.81,0.17,1.14,0.34
			c0.32,0.17,0.61,0.38,0.84,0.63s0.43,0.53,0.58,0.83s0.27,0.64,0.35,1.02c0.08,0.37,0.12,0.75,0.12,1.14
			c0,0.74-0.13,1.45-0.39,2.12c-0.26,0.67-0.64,1.23-1.15,1.67s-1.08,0.72-1.7,0.85c-0.62,0.13-1.32,0.19-2.11,0.19l-2.2-0.01
			C477.96,541.92,477.55,541.92,476.86,541.93z M478.85,540.55c0.35,0.02,0.7,0.03,1.05,0.03c0.39,0,0.76-0.02,1.09-0.06
			c0.33-0.04,0.62-0.1,0.87-0.18c0.24-0.08,0.49-0.23,0.73-0.44s0.44-0.46,0.6-0.74c0.16-0.28,0.27-0.59,0.36-0.93
			c0.08-0.34,0.12-0.69,0.12-1.04c0-0.65-0.11-1.18-0.33-1.6c-0.22-0.42-0.51-0.72-0.87-0.9s-0.92-0.28-1.67-0.28
			c-0.49,0-1.05,0.01-1.68,0.03L478.85,540.55z"/>
		<path class="st32" d="M485.7,541.93c0.45-0.79,0.98-1.78,1.58-2.95l1.71-3.28c0.53-1.01,0.97-1.89,1.32-2.63
			c0.56,0.01,0.96,0.01,1.19,0.01c0.41,0,0.81,0,1.21-0.01l0.93,2.65l2.02,5.49l0.28,0.71l-0.97-0.01c-0.22,0-0.6,0-1.13,0.01
			c-0.1-0.38-0.27-0.9-0.49-1.56c-0.22-0.65-0.41-1.18-0.57-1.59h-3.41c-0.51,1.03-1,2.08-1.48,3.15l-1.06-0.01
			C486.63,541.92,486.25,541.92,485.7,541.93z M489.94,537.44h2.48l-1.02-3l-0.52,1.09L489.94,537.44z"/>
		<path class="st32" d="M496.65,541.75c-0.03-0.66-0.08-1.19-0.14-1.61c0.85,0.38,1.62,0.58,2.31,0.58c0.28,0,0.54-0.04,0.77-0.13
			c0.24-0.08,0.42-0.2,0.53-0.36c0.11-0.15,0.17-0.33,0.17-0.52c0-0.15-0.03-0.28-0.08-0.4c-0.08-0.16-0.22-0.33-0.41-0.5
			c-0.25-0.24-0.69-0.63-1.32-1.17c-0.3-0.26-0.51-0.45-0.63-0.56c-0.26-0.25-0.46-0.47-0.6-0.67c-0.14-0.2-0.24-0.39-0.3-0.59
			c-0.06-0.2-0.09-0.4-0.09-0.62c0-0.41,0.11-0.79,0.34-1.14s0.57-0.64,1.02-0.84c0.45-0.2,1.02-0.3,1.71-0.3
			c0.62,0,1.31,0.08,2.09,0.23c0.02,0.45,0.06,0.96,0.13,1.54c-0.67-0.26-1.29-0.39-1.86-0.39c-0.42,0-0.77,0.1-1.04,0.29
			c-0.27,0.19-0.4,0.42-0.4,0.67c0,0.07,0.01,0.14,0.03,0.22c0.02,0.08,0.05,0.15,0.08,0.22s0.1,0.16,0.2,0.28
			c0.1,0.11,0.24,0.25,0.42,0.4c0.19,0.15,0.34,0.28,0.48,0.37l0.8,0.73c0.2,0.17,0.38,0.33,0.54,0.49c0.16,0.16,0.3,0.31,0.41,0.46
			c0.11,0.15,0.2,0.29,0.27,0.42c0.06,0.13,0.11,0.27,0.15,0.41c0.03,0.14,0.05,0.29,0.05,0.44c0,0.36-0.08,0.71-0.25,1.03
			c-0.17,0.32-0.41,0.59-0.73,0.79c-0.32,0.21-0.66,0.35-1.04,0.43c-0.38,0.08-0.77,0.12-1.19,0.12c-0.28,0-0.6-0.02-0.97-0.07
			C497.74,541.97,497.25,541.88,496.65,541.75z"/>
		<path class="st32" d="M503.7,541.93l0.15-2.33c0.08-1.27,0.14-2.45,0.18-3.54c0.03-1.09,0.05-1.84,0.05-2.27l-0.01-0.71
			c0.51,0.01,0.87,0.01,1.08,0.01c0.16,0,0.49,0,0.98-0.01l-0.17,2.92l-0.02,0.67h4.41l0.08-1.75c0.02-0.6,0.03-1,0.03-1.19v-0.66
			l1.08,0.01c0.09,0,0.42,0,0.97-0.01l-0.21,3.53l-0.09,2.62l-0.02,1.54c-0.01,0.63-0.01,1.02-0.01,1.16l-1.01-0.01
			c-0.13,0-0.48,0-1.08,0.01c0.11-1.22,0.18-2.51,0.22-3.86h-4.43l-0.09,2.39l-0.03,1.47l-1.06-0.01
			C504.58,541.92,504.24,541.92,503.7,541.93z"/>
		<path class="st32" d="M514.01,541.93c0.08-0.92,0.14-1.67,0.17-2.25c0.03-0.58,0.07-1.58,0.12-2.99c0.05-1.41,0.07-2.38,0.07-2.91
			c0-0.16,0-0.4-0.01-0.71c0.54,0.01,1,0.01,1.35,0.01c0.36,0,0.81-0.01,1.34-0.02c0.53-0.01,0.97-0.02,1.32-0.02
			c0.48,0,0.85,0.02,1.09,0.06s0.46,0.1,0.65,0.18s0.35,0.18,0.48,0.3c0.13,0.12,0.24,0.26,0.33,0.42s0.16,0.34,0.21,0.53
			c0.04,0.19,0.07,0.38,0.07,0.57c0,0.24-0.03,0.47-0.09,0.69s-0.14,0.42-0.25,0.59s-0.24,0.32-0.39,0.45
			c-0.15,0.12-0.29,0.22-0.42,0.29s-0.31,0.14-0.54,0.22c0.2,0.04,0.37,0.08,0.49,0.13s0.25,0.1,0.39,0.19
			c0.14,0.08,0.27,0.19,0.39,0.32s0.22,0.27,0.29,0.42c0.07,0.15,0.13,0.31,0.17,0.49c0.04,0.18,0.06,0.37,0.06,0.56
			c0,0.42-0.09,0.79-0.27,1.14c-0.18,0.35-0.43,0.62-0.74,0.82c-0.32,0.2-0.67,0.33-1.06,0.4c-0.39,0.07-1.22,0.1-2.49,0.1
			l-1.57-0.01L514.01,541.93z M515.97,540.67h1.47c0.3,0,0.53-0.01,0.7-0.04c0.17-0.02,0.33-0.07,0.48-0.13s0.27-0.13,0.36-0.2
			c0.09-0.07,0.16-0.16,0.23-0.27s0.12-0.23,0.16-0.37s0.06-0.28,0.06-0.43c0-0.2-0.03-0.38-0.1-0.53s-0.17-0.28-0.31-0.39
			c-0.14-0.11-0.3-0.19-0.48-0.24s-0.46-0.08-0.83-0.08h-1.63L515.97,540.67z M516.13,536.75h1.04c0.44,0,0.74-0.01,0.9-0.03
			c0.15-0.02,0.31-0.06,0.48-0.13s0.31-0.16,0.43-0.29s0.2-0.28,0.26-0.43c0.05-0.16,0.08-0.32,0.08-0.48
			c0-0.16-0.03-0.31-0.09-0.45c-0.06-0.14-0.15-0.26-0.27-0.35s-0.27-0.16-0.44-0.2c-0.17-0.04-0.42-0.06-0.75-0.06h-1.55
			L516.13,536.75z"/>
		<path class="st32" d="M527.71,532.93c0.64,0,1.26,0.09,1.85,0.27c0.59,0.18,1.12,0.47,1.58,0.87c0.46,0.4,0.8,0.87,1.04,1.4
			c0.23,0.53,0.35,1.15,0.35,1.86c0,0.67-0.11,1.3-0.33,1.91c-0.22,0.61-0.56,1.13-1.02,1.57c-0.46,0.44-1.03,0.76-1.69,0.98
			c-0.66,0.21-1.36,0.32-2.09,0.32c-0.69,0-1.36-0.1-1.99-0.29c-0.64-0.2-1.19-0.5-1.65-0.92c-0.46-0.42-0.79-0.89-0.99-1.43
			c-0.2-0.54-0.3-1.12-0.3-1.75c0-0.69,0.12-1.34,0.37-1.97c0.25-0.63,0.61-1.15,1.1-1.56c0.48-0.41,1.05-0.72,1.69-0.93
			C526.27,533.03,526.97,532.93,527.71,532.93z M527.61,534.31c-0.65,0-1.22,0.15-1.71,0.45c-0.48,0.3-0.85,0.71-1.09,1.23
			c-0.24,0.52-0.37,1.08-0.37,1.69c0,0.56,0.12,1.08,0.35,1.55c0.24,0.47,0.6,0.83,1.09,1.08c0.49,0.25,1.02,0.37,1.58,0.37
			c0.43,0,0.84-0.07,1.23-0.22c0.39-0.15,0.73-0.37,1.01-0.67c0.28-0.3,0.5-0.66,0.64-1.09s0.21-0.87,0.21-1.32
			c0-0.43-0.06-0.84-0.19-1.23c-0.13-0.39-0.33-0.73-0.59-1.02c-0.27-0.28-0.59-0.49-0.97-0.63
			C528.42,534.38,528.02,534.31,527.61,534.31z"/>
		<path class="st32" d="M532.59,541.93c0.45-0.79,0.98-1.78,1.58-2.95l1.71-3.28c0.53-1.01,0.97-1.89,1.32-2.63
			c0.56,0.01,0.96,0.01,1.19,0.01c0.41,0,0.81,0,1.21-0.01l0.93,2.65l2.02,5.49l0.28,0.71l-0.97-0.01c-0.22,0-0.6,0-1.13,0.01
			c-0.1-0.38-0.27-0.9-0.49-1.56c-0.22-0.65-0.41-1.18-0.57-1.59h-3.41c-0.51,1.03-1,2.08-1.48,3.15l-1.06-0.01
			C533.51,541.92,533.14,541.92,532.59,541.93z M536.82,537.44h2.49l-1.02-3l-0.52,1.09L536.82,537.44z"/>
		<path class="st32" d="M543.75,541.93c0.13-1.29,0.23-2.77,0.29-4.44c0.06-1.67,0.1-3.14,0.1-4.41c0.52,0.01,0.95,0.01,1.3,0.01
			c0.38,0,0.74-0.01,1.11-0.02c0.36-0.01,0.74-0.02,1.14-0.02c0.5,0,0.95,0.03,1.34,0.08c0.4,0.06,0.75,0.19,1.05,0.39
			c0.31,0.2,0.53,0.45,0.68,0.74c0.15,0.29,0.22,0.63,0.22,1.01c0,0.24-0.03,0.47-0.08,0.69c-0.06,0.22-0.14,0.42-0.25,0.62
			s-0.24,0.36-0.39,0.51s-0.3,0.26-0.45,0.34s-0.32,0.16-0.51,0.22c-0.19,0.06-0.45,0.13-0.77,0.22l0.44,0.86
			c0.14,0.27,0.41,0.76,0.81,1.46l0.65,1.15c0.04,0.06,0.14,0.26,0.31,0.59c-0.53-0.01-0.88-0.01-1.05-0.01c-0.21,0-0.57,0-1.1,0.01
			l-0.72-1.72c-0.12-0.26-0.28-0.58-0.45-0.93l-0.78-1.58c-0.08-0.15-0.19-0.37-0.32-0.66c0.29,0.05,0.55,0.08,0.79,0.08
			c0.37,0,0.71-0.06,1.02-0.18c0.31-0.12,0.54-0.31,0.71-0.56c0.16-0.25,0.25-0.53,0.25-0.83c0-0.18-0.04-0.35-0.11-0.51
			c-0.07-0.16-0.19-0.29-0.36-0.4c-0.17-0.11-0.37-0.18-0.6-0.21c-0.23-0.03-0.47-0.05-0.7-0.05c-0.13,0-0.31,0-0.53,0.01
			c-0.22,0-0.5,0.01-0.83,0.01l-0.12,2.67l-0.12,4.86l-1.01-0.01C544.57,541.92,544.24,541.92,543.75,541.93z"/>
		<path class="st32" d="M552.14,541.93l0.17-2.26l0.13-2.82l0.08-2.81c0-0.12,0.01-0.44,0.01-0.97c0.48,0.01,0.93,0.01,1.36,0.01
			c0.32,0,0.73-0.01,1.25-0.02c0.52-0.01,0.96-0.02,1.34-0.02c0.51,0,0.98,0.03,1.42,0.09c0.43,0.06,0.81,0.17,1.14,0.34
			c0.32,0.17,0.61,0.38,0.84,0.63c0.24,0.25,0.43,0.53,0.58,0.83s0.27,0.64,0.35,1.02s0.12,0.75,0.12,1.14
			c0,0.74-0.13,1.45-0.39,2.12c-0.26,0.67-0.64,1.23-1.15,1.67s-1.08,0.72-1.7,0.85c-0.62,0.13-1.32,0.19-2.11,0.19l-2.21-0.01
			C553.25,541.92,552.83,541.92,552.14,541.93z M554.13,540.55c0.35,0.02,0.71,0.03,1.05,0.03c0.39,0,0.76-0.02,1.09-0.06
			c0.33-0.04,0.62-0.1,0.87-0.18c0.24-0.08,0.49-0.23,0.73-0.44c0.24-0.21,0.44-0.46,0.6-0.74c0.16-0.28,0.27-0.59,0.36-0.93
			s0.12-0.69,0.12-1.04c0-0.65-0.11-1.18-0.33-1.6s-0.51-0.72-0.87-0.9c-0.36-0.18-0.92-0.28-1.67-0.28c-0.49,0-1.05,0.01-1.68,0.03
			L554.13,540.55z"/>
	</g>
</g>
<g id="BANCO_DE_DADOS">
	<rect id="FOOT" x="892.25" y="373" class="st33" width="98" height="14"/>
	<path id="TOWER" class="st34" d="M998.63,373H883.87c-2.83,0-5.12-2.29-5.12-5.12V71.47c0-10.75,8.72-19.47,19.47-19.47h86.06
		c10.75,0,19.47,8.72,19.47,19.47v296.41C1003.75,370.71,1001.46,373,998.63,373z"/>
	<g id="INDICATOR_PANEL">
		<rect id="PANEL" x="896.25" y="268" class="st35" width="90" height="81"/>
		<path id="INDICATOR" class="st36" d="M930.17,337.75h-19.35c-2.67,0-4.83-2.16-4.83-4.83v-48.35c0-2.67,2.16-4.83,4.83-4.83h19.35
			c2.67,0,4.83,2.16,4.83,4.83v48.35C935,335.59,932.84,337.75,930.17,337.75z"/>
		<path id="INDICATOR_DETAIL" class="st37" d="M925.42,332.25h-9.83c-2.53,0-4.58-2.05-4.58-4.58v-37.83c0-2.53,2.05-4.58,4.58-4.58
			h9.83c2.53,0,4.58,2.05,4.58,4.58v37.83C930,330.2,927.95,332.25,925.42,332.25z"/>
		<g id="VENT_ROUND">
			<circle class="st38" cx="959" cy="320" r="1"/>
			<circle class="st38" cx="963" cy="320" r="1"/>
			<circle class="st38" cx="959" cy="324" r="1"/>
			<circle class="st38" cx="963" cy="324" r="1"/>
			<circle class="st38" cx="967" cy="320" r="1"/>
			<circle class="st38" cx="971" cy="320" r="1"/>
			<circle class="st38" cx="967" cy="324" r="1"/>
			<circle class="st38" cx="971" cy="324" r="1"/>
			<circle class="st38" cx="967" cy="328" r="1"/>
			<circle class="st38" cx="971" cy="328" r="1"/>
			<circle class="st38" cx="967" cy="332" r="1"/>
			<circle class="st38" cx="971" cy="332" r="1"/>
			<circle class="st38" cx="959" cy="328" r="1"/>
			<circle class="st38" cx="963" cy="328" r="1"/>
			<circle class="st38" cx="959" cy="332" r="1"/>
			<circle class="st38" cx="955" cy="320" r="1"/>
			<circle class="st38" cx="955" cy="324" r="1"/>
			<circle class="st38" cx="955" cy="328" r="1"/>
			<circle class="st38" cx="955" cy="332" r="1"/>
			<circle class="st38" cx="963" cy="332" r="1"/>
		</g>
		<g id="VENT_LINE">
			<path class="st38" d="M971,285h-16c-0.55,0-1-0.45-1-1l0,0c0-0.55,0.45-1,1-1h16c0.55,0,1,0.45,1,1l0,0
				C972,284.55,971.55,285,971,285z"/>
			<path class="st38" d="M971,289h-16c-0.55,0-1-0.45-1-1l0,0c0-0.55,0.45-1,1-1h16c0.55,0,1,0.45,1,1l0,0
				C972,288.55,971.55,289,971,289z"/>
			<path class="st38" d="M971,299h-16c-0.55,0-1-0.45-1-1l0,0c0-0.55,0.45-1,1-1h16c0.55,0,1,0.45,1,1l0,0
				C972,298.55,971.55,299,971,299z"/>
			<path class="st38" d="M971,303h-16c-0.55,0-1-0.45-1-1l0,0c0-0.55,0.45-1,1-1h16c0.55,0,1,0.45,1,1l0,0
				C972,302.55,971.55,303,971,303z"/>
		</g>
	</g>
	<g id="DOCKS">
		<g id="HD_BAYS">
			<rect x="896.25" y="231" class="st39" width="90" height="25"/>
			<rect x="896.25" y="196" class="st39" width="90" height="25"/>
			<rect x="896.25" y="161" class="st39" width="90" height="25"/>
			<rect x="896.25" y="126" class="st39" width="90" height="25"/>
			<rect x="896.25" y="91" class="st39" width="90" height="25"/>
		</g>
		<g id="SQUARE_HD_BUTTON">
			<rect x="903" y="168" class="st40" width="27" height="12"/>
			<rect x="903" y="203" class="st40" width="27" height="12"/>
			<rect x="903" y="98" class="st40" width="27" height="12"/>
			<rect x="903" y="133" class="st40" width="27" height="12"/>
			<rect x="903" y="238" class="st40" width="27" height="12"/>
		</g>
		<g id="ROUND_HD_BUTTON">
			<circle class="st41" cx="941" cy="174" r="4"/>
			<circle class="st41" cx="941" cy="209" r="4"/>
			<circle class="st41" cx="941" cy="104" r="4"/>
			<circle class="st41" cx="941" cy="139" r="4"/>
			<circle class="st41" cx="941" cy="244" r="4"/>
		</g>
	</g>
	<path id="TOWER_DETAIL" class="st42" d="M991.05,363.5h-99.6c-2.04,0-3.7-1.66-3.7-3.7V78.98c0-7.44,6.03-13.48,13.48-13.48h80.04
		c7.44,0,13.48,6.03,13.48,13.48V359.8C994.75,361.84,993.09,363.5,991.05,363.5z"/>
	<g id="UPPER_PANEL">
		<path class="st43" d="M979.5,82h-42c-1.38,0-2.5-1.12-2.5-2.5v-4c0-1.38,1.12-2.5,2.5-2.5h42c1.38,0,2.5,1.12,2.5,2.5v4
			C982,80.88,980.88,82,979.5,82z"/>
		<circle class="st44" cx="913.5" cy="77.5" r="4.5"/>
		<circle class="st45" cx="925.5" cy="77.5" r="4.5"/>
	</g>
</g>
<g id="CADEADO">
	<path class="st46" d="M553.79,358.15h-31.68c-5.16,0-9.34-4.18-9.34-9.34v-31.68c0-5.16,4.18-9.34,9.34-9.34h31.68
		c5.16,0,9.34,4.18,9.34,9.34v31.68C563.13,353.97,558.95,358.15,553.79,358.15z"/>
	<circle class="st47" cx="537.95" cy="327.9" r="5.56"/>
	<path class="st47" d="M537.95,343.97L537.95,343.97c-1.34,0-2.43-1.09-2.43-2.43v-12.26h4.86v12.26
		C540.39,342.88,539.3,343.97,537.95,343.97z"/>
	<path class="st48" d="M544.02,274.97h-12.14c-6.75,0-12.22,5.47-12.22,12.22v20.6h6.64c-0.31,0-0.57-0.25-0.57-0.57v-19.88
		c0-3.7,3-6.7,6.7-6.7h11c3.7,0,6.7,3,6.7,6.7v19.88c0,0.31-0.25,0.57-0.57,0.57h6.64v-20.6
		C556.24,280.44,550.77,274.97,544.02,274.97z"/>
</g>
<path class="st49" d="M607.29,423H468.71c-11.44,0-20.71-9.27-20.71-20.71v-7.68c0-11.44,9.27-20.71,20.71-20.71h138.58
	c11.44,0,20.71,9.27,20.71,20.71v7.68C628,413.73,618.73,423,607.29,423z"/>
<g>
	<path class="st50" d="M470.54,402.3c-0.11,0.61-0.21,1.23-0.3,1.86c-0.59,0.1-1.14,0.18-1.63,0.22c-0.5,0.04-0.92,0.06-1.27,0.06
		c-0.78,0-1.53-0.11-2.24-0.33s-1.35-0.56-1.92-1.04c-0.57-0.47-0.98-1.04-1.24-1.71c-0.26-0.67-0.38-1.41-0.38-2.2
		c0-0.86,0.15-1.66,0.46-2.4c0.31-0.73,0.75-1.35,1.32-1.86c0.58-0.5,1.26-0.88,2.04-1.13c0.79-0.25,1.61-0.37,2.46-0.37
		c0.84,0,1.77,0.1,2.77,0.29c0.02,0.46,0.03,0.79,0.05,0.98l0.05,0.84c-0.59-0.16-1.08-0.26-1.47-0.32
		c-0.39-0.06-0.76-0.09-1.12-0.09c-0.56,0-1.09,0.08-1.61,0.25c-0.51,0.17-0.97,0.44-1.36,0.81c-0.39,0.37-0.7,0.82-0.91,1.34
		s-0.32,1.07-0.32,1.64c0,0.68,0.13,1.28,0.39,1.82c0.26,0.54,0.68,0.97,1.25,1.3c0.58,0.33,1.29,0.5,2.14,0.5
		C468.5,402.77,469.44,402.61,470.54,402.3z"/>
	<path class="st50" d="M478.26,393.4c0.78,0,1.52,0.11,2.23,0.32c0.71,0.21,1.35,0.56,1.9,1.04c0.55,0.48,0.97,1.04,1.25,1.68
		s0.42,1.39,0.42,2.24c0,0.8-0.13,1.57-0.4,2.3c-0.27,0.73-0.68,1.36-1.23,1.89c-0.56,0.53-1.24,0.92-2.04,1.18
		c-0.8,0.25-1.64,0.38-2.52,0.38c-0.83,0-1.63-0.12-2.4-0.35c-0.77-0.23-1.43-0.6-1.98-1.1s-0.95-1.07-1.19-1.72
		c-0.24-0.65-0.36-1.35-0.36-2.11c0-0.83,0.15-1.62,0.45-2.38c0.3-0.75,0.74-1.38,1.32-1.88c0.58-0.49,1.26-0.87,2.04-1.12
		C476.52,393.53,477.36,393.4,478.26,393.4z M478.13,395.07c-0.79,0-1.47,0.18-2.05,0.54c-0.58,0.36-1.02,0.86-1.32,1.48
		c-0.29,0.63-0.44,1.31-0.44,2.04c0,0.68,0.14,1.3,0.43,1.87c0.28,0.57,0.72,1.01,1.31,1.3c0.59,0.3,1.22,0.45,1.91,0.45
		c0.52,0,1.01-0.09,1.48-0.27c0.47-0.18,0.87-0.45,1.21-0.81c0.34-0.36,0.6-0.8,0.77-1.31c0.17-0.51,0.26-1.04,0.26-1.59
		c0-0.52-0.08-1.01-0.23-1.48c-0.15-0.47-0.39-0.88-0.71-1.22c-0.32-0.34-0.71-0.59-1.17-0.76
		C479.11,395.15,478.63,395.07,478.13,395.07z"/>
	<path class="st50" d="M485.54,404.26c0.1-0.93,0.17-1.98,0.23-3.14l0.18-3.83c0.06-1.39,0.09-2.62,0.09-3.7
		c0.6,0.01,1.12,0.02,1.54,0.02c0.31,0,0.77,0,1.37-0.02c0.59,1.03,1.4,2.36,2.44,4.02c1.04,1.65,1.87,3.02,2.51,4.1l0.29-7.25
		c0-0.17,0.01-0.46,0.01-0.87c0.49,0.01,0.86,0.02,1.11,0.02c0.1,0,0.46,0,1.1-0.02l-0.19,2.87l-0.24,4.91l-0.09,2.89
		c-0.54-0.01-1-0.02-1.38-0.02c-0.3,0-0.79,0.01-1.47,0.02c-0.26-0.46-0.46-0.81-0.59-1.03c-0.21-0.34-0.67-1.05-1.37-2.12
		c-0.46-0.71-1.03-1.61-1.72-2.72c-0.51-0.81-0.94-1.52-1.3-2.12c-0.04,0.84-0.11,2.41-0.19,4.7c-0.04,0.93-0.06,2.03-0.09,3.3
		c-0.49-0.01-0.84-0.02-1.06-0.02C486.52,404.24,486.14,404.25,485.54,404.26z"/>
	<path class="st50" d="M498.12,404.26l0.23-2.99l0.16-3.46l0.1-3.15v-1.06c1.29,0.01,2.63,0.02,4.02,0.02l1.5-0.01l2.26-0.01
		l-0.09,1.69l-0.74-0.04c-0.2-0.01-0.48-0.02-0.84-0.02c-0.36,0-0.73-0.01-1.1-0.01c-0.81,0-1.34,0-1.57,0
		c-0.24,0-0.6,0.01-1.07,0.03l-0.13,2.77c0.71,0.02,1.43,0.02,2.16,0.02c0.5,0,1.34-0.02,2.53-0.05c-0.04,0.47-0.08,1.04-0.11,1.7
		c-1.39-0.02-2.19-0.02-2.39-0.02c-0.61,0-1.38,0.02-2.3,0.05l-0.13,2.92l0.86,0.01c0.25,0,0.82,0,1.72-0.02l1.7-0.03l1.13-0.05
		c-0.05,0.6-0.09,1.17-0.11,1.71c-1.35-0.01-2.58-0.02-3.66-0.02l-2.57,0.01L498.12,404.26z"/>
	<path class="st50" d="M506.45,404.26l0.58-0.71c0.18-0.22,0.5-0.61,0.94-1.17l2.12-2.72l0.67-0.9l-0.96-1.57l-2.32-3.59
		c0.51,0.01,1,0.02,1.47,0.02c0.38,0,0.81,0,1.29-0.02c0.28,0.61,0.61,1.25,0.97,1.91c0.36,0.66,0.64,1.2,0.83,1.62
		c0.32-0.44,0.78-1.01,1.38-1.73c0.59-0.72,1.06-1.32,1.39-1.81c0.43,0.01,0.86,0.02,1.3,0.02c0.28,0,0.71,0,1.3-0.02
		c-0.42,0.54-1,1.29-1.77,2.25c-0.76,0.95-1.48,1.89-2.17,2.81c0.72,1.2,1.91,3.07,3.58,5.6c-0.61-0.01-1.05-0.02-1.33-0.02
		c-0.45,0-0.93,0.01-1.44,0.02c-0.29-0.51-0.68-1.13-1.17-1.86s-0.88-1.33-1.16-1.79c-0.29,0.41-0.73,0.97-1.31,1.69
		c-0.58,0.72-1.09,1.37-1.53,1.97c-0.57-0.01-1-0.02-1.3-0.02C507.48,404.24,507.02,404.25,506.45,404.26z"/>
	<path class="st50" d="M516.74,404.26c0.54-0.96,1.18-2.14,1.91-3.55l2.06-3.95c0.64-1.22,1.17-2.27,1.59-3.16
		c0.68,0.01,1.16,0.02,1.44,0.02c0.49,0,0.98,0,1.45-0.02l1.12,3.2l2.43,6.61l0.34,0.86l-1.17-0.02c-0.27,0-0.73,0.01-1.37,0.02
		c-0.12-0.46-0.32-1.09-0.59-1.88c-0.27-0.79-0.5-1.42-0.69-1.91h-4.11c-0.61,1.24-1.2,2.5-1.78,3.79l-1.27-0.02
		C517.85,404.24,517.4,404.25,516.74,404.26z M521.52,392.41c0-0.41,0.05-0.74,0.14-1.02c0.09-0.27,0.21-0.46,0.36-0.57
		c0.16-0.11,0.33-0.17,0.53-0.17c0.07,0,0.14,0.01,0.21,0.02c0.07,0.01,0.15,0.03,0.22,0.06c0.07,0.03,0.14,0.06,0.19,0.09
		s0.16,0.1,0.32,0.2l0.41,0.26c0.09,0.06,0.18,0.11,0.27,0.15c0.08,0.04,0.17,0.06,0.26,0.06c0.07,0,0.13-0.01,0.18-0.04
		c0.05-0.03,0.1-0.07,0.14-0.13c0.04-0.06,0.06-0.13,0.07-0.2c0.01-0.07,0.03-0.18,0.04-0.32c0.22,0.01,0.38,0.02,0.49,0.02
		s0.28,0,0.51-0.02c0,0.35-0.04,0.65-0.11,0.9c-0.07,0.25-0.18,0.45-0.34,0.61s-0.37,0.25-0.63,0.25c-0.1,0-0.2-0.01-0.29-0.04
		c-0.1-0.03-0.2-0.07-0.3-0.12c-0.1-0.06-0.29-0.17-0.55-0.34c-0.26-0.17-0.43-0.27-0.52-0.3c-0.08-0.04-0.16-0.05-0.24-0.05
		c-0.09,0-0.17,0.03-0.23,0.09c-0.07,0.06-0.11,0.13-0.12,0.21c-0.02,0.08-0.03,0.22-0.04,0.41c-0.2-0.01-0.37-0.02-0.49-0.02
		S521.71,392.4,521.52,392.41z M521.84,398.84h2.99l-1.23-3.62l-0.63,1.31L521.84,398.84z"/>
	<path class="st50" d="M536.26,393.4c0.78,0,1.52,0.11,2.23,0.32c0.71,0.21,1.35,0.56,1.9,1.04c0.55,0.48,0.97,1.04,1.25,1.68
		s0.42,1.39,0.42,2.24c0,0.8-0.13,1.57-0.4,2.3c-0.27,0.73-0.68,1.36-1.23,1.89c-0.56,0.53-1.24,0.92-2.04,1.18
		c-0.8,0.25-1.64,0.38-2.52,0.38c-0.83,0-1.63-0.12-2.4-0.35c-0.77-0.23-1.43-0.6-1.98-1.1s-0.95-1.07-1.19-1.72
		c-0.24-0.65-0.36-1.35-0.36-2.11c0-0.83,0.15-1.62,0.45-2.38c0.3-0.75,0.74-1.38,1.32-1.88c0.58-0.49,1.26-0.87,2.04-1.12
		C534.53,393.53,535.37,393.4,536.26,393.4z M536.14,395.07c-0.79,0-1.47,0.18-2.05,0.54c-0.58,0.36-1.02,0.86-1.32,1.48
		c-0.29,0.63-0.44,1.31-0.44,2.04c0,0.68,0.14,1.3,0.43,1.87c0.28,0.57,0.72,1.01,1.31,1.3c0.59,0.3,1.22,0.45,1.91,0.45
		c0.52,0,1.01-0.09,1.48-0.27c0.47-0.18,0.87-0.45,1.21-0.81c0.34-0.36,0.6-0.8,0.77-1.31c0.17-0.51,0.26-1.04,0.26-1.59
		c0-0.52-0.08-1.01-0.23-1.48c-0.15-0.47-0.39-0.88-0.71-1.22c-0.32-0.34-0.71-0.59-1.17-0.76
		C537.12,395.15,536.64,395.07,536.14,395.07z"/>
	<path class="st50" d="M547.28,404.03c-0.04-0.79-0.1-1.44-0.16-1.94c1.02,0.46,1.95,0.7,2.78,0.7c0.33,0,0.64-0.05,0.93-0.15
		s0.5-0.24,0.64-0.43c0.14-0.18,0.21-0.39,0.21-0.62c0-0.18-0.03-0.34-0.1-0.48c-0.1-0.19-0.27-0.39-0.5-0.6
		c-0.3-0.29-0.83-0.76-1.59-1.41c-0.36-0.32-0.62-0.54-0.75-0.68c-0.31-0.3-0.55-0.56-0.72-0.8c-0.17-0.24-0.29-0.47-0.36-0.71
		c-0.07-0.23-0.11-0.48-0.11-0.75c0-0.49,0.14-0.95,0.41-1.38s0.68-0.77,1.23-1.01c0.54-0.24,1.23-0.36,2.06-0.36
		c0.74,0,1.58,0.09,2.52,0.27c0.03,0.54,0.08,1.16,0.16,1.86c-0.81-0.31-1.56-0.47-2.25-0.47c-0.51,0-0.93,0.12-1.25,0.35
		c-0.33,0.23-0.49,0.5-0.49,0.81c0,0.08,0.01,0.17,0.03,0.26c0.02,0.09,0.06,0.18,0.1,0.27c0.05,0.09,0.13,0.2,0.24,0.34
		c0.12,0.14,0.29,0.3,0.51,0.48c0.22,0.19,0.42,0.33,0.57,0.45l0.96,0.88c0.25,0.2,0.46,0.4,0.66,0.59c0.19,0.19,0.36,0.38,0.5,0.55
		c0.14,0.18,0.25,0.35,0.32,0.51c0.08,0.16,0.14,0.33,0.18,0.5c0.04,0.17,0.06,0.35,0.06,0.54c0,0.44-0.1,0.85-0.3,1.24
		c-0.2,0.39-0.5,0.71-0.88,0.96c-0.38,0.25-0.8,0.42-1.25,0.52s-0.93,0.14-1.44,0.14c-0.33,0-0.72-0.03-1.16-0.09
		C548.59,404.3,548,404.19,547.28,404.03z"/>
	<path class="st50" d="M555.75,404.26l0.23-2.99l0.16-3.46l0.1-3.15v-1.06c1.29,0.01,2.63,0.02,4.02,0.02l1.5-0.01l2.26-0.01
		l-0.09,1.69l-0.74-0.04c-0.2-0.01-0.48-0.02-0.84-0.02c-0.36,0-0.73-0.01-1.1-0.01c-0.81,0-1.34,0-1.57,0
		c-0.24,0-0.59,0.01-1.07,0.03l-0.13,2.77c0.71,0.02,1.43,0.02,2.16,0.02c0.5,0,1.34-0.02,2.53-0.05c-0.04,0.47-0.08,1.04-0.11,1.7
		c-1.39-0.02-2.19-0.02-2.39-0.02c-0.61,0-1.38,0.02-2.3,0.05l-0.13,2.92l0.86,0.01c0.25,0,0.82,0,1.72-0.02l1.7-0.03l1.13-0.05
		c-0.05,0.6-0.09,1.17-0.11,1.71c-1.35-0.01-2.58-0.02-3.66-0.02l-2.57,0.01L555.75,404.26z"/>
	<path class="st50" d="M571.68,398.16c0.72,0.01,1.41,0.02,2.06,0.02c0.86,0,1.58,0,2.15-0.02c-0.14,1.75-0.23,3.68-0.29,5.81
		c-0.86,0.17-1.65,0.29-2.34,0.36c-0.7,0.07-1.29,0.11-1.78,0.11c-0.92,0-1.77-0.1-2.55-0.29c-0.78-0.19-1.45-0.5-1.99-0.94
		c-0.54-0.43-0.96-1-1.24-1.71c-0.28-0.71-0.43-1.45-0.43-2.24c0-0.67,0.11-1.32,0.32-1.95s0.52-1.2,0.94-1.72
		c0.41-0.52,0.91-0.95,1.5-1.3c0.59-0.35,1.21-0.58,1.87-0.71c0.66-0.13,1.36-0.19,2.09-0.19c1.01,0,2.17,0.14,3.48,0.41
		c0,0.59,0.03,1.21,0.09,1.86c-1.23-0.41-2.34-0.62-3.34-0.62c-0.64,0-1.25,0.09-1.82,0.27c-0.57,0.18-1.06,0.46-1.48,0.85
		s-0.73,0.86-0.95,1.42c-0.22,0.57-0.32,1.15-0.32,1.75c0,0.67,0.12,1.27,0.37,1.8c0.25,0.53,0.66,0.94,1.25,1.23
		c0.58,0.29,1.25,0.44,2.01,0.44c0.28,0,0.6-0.02,0.98-0.07c0.38-0.05,0.77-0.13,1.17-0.25l0.13-2.74l-0.62-0.01
		c-0.35,0-0.79,0.01-1.33,0.02C571.65,399.07,571.68,398.53,571.68,398.16z"/>
	<path class="st50" d="M578.16,393.59c0.6,0.01,1.01,0.02,1.22,0.02c0.26,0,0.66,0,1.19-0.02l-0.37,6.3c0,0.07-0.01,0.15-0.01,0.23
		c0,0.7,0.1,1.23,0.3,1.59c0.2,0.35,0.5,0.61,0.88,0.77c0.39,0.16,0.83,0.24,1.33,0.24c0.32,0,0.62-0.04,0.91-0.11
		c0.23-0.06,0.45-0.15,0.64-0.26c0.16-0.09,0.29-0.2,0.41-0.33c0.14-0.15,0.26-0.33,0.35-0.52c0.1-0.19,0.17-0.41,0.22-0.66
		c0.07-0.37,0.13-1.01,0.19-1.93l0.17-2.72c0.04-0.79,0.07-1.66,0.09-2.62c0.59,0.01,1.02,0.02,1.31,0.02l1.14-0.02l-0.24,3.77
		l-0.16,2.99c-0.05,0.7-0.12,1.22-0.22,1.56c-0.08,0.29-0.2,0.55-0.35,0.8c-0.15,0.22-0.32,0.41-0.52,0.59
		c-0.26,0.22-0.56,0.42-0.91,0.58c-0.39,0.18-0.8,0.32-1.24,0.4c-0.6,0.11-1.23,0.17-1.87,0.17c-0.66,0-1.27-0.06-1.84-0.18
		c-0.49-0.1-0.94-0.27-1.35-0.48s-0.73-0.46-0.97-0.73c-0.19-0.22-0.35-0.49-0.46-0.82c-0.13-0.36-0.2-0.77-0.2-1.22
		c0-0.16,0-0.36,0.02-0.61c0.01-0.25,0.03-0.57,0.06-0.96l0.07-1.1c0.03-0.34,0.05-0.85,0.09-1.52l0.08-1.7
		C578.12,394.67,578.14,394.15,578.16,393.59z"/>
	<path class="st50" d="M589.72,404.26c0.16-1.55,0.27-3.34,0.35-5.35c0.08-2.02,0.12-3.79,0.12-5.31c0.62,0.01,1.15,0.02,1.57,0.02
		c0.45,0,0.9-0.01,1.33-0.02c0.43-0.02,0.89-0.02,1.38-0.02c0.6,0,1.14,0.03,1.62,0.1c0.48,0.07,0.9,0.22,1.27,0.47
		c0.37,0.25,0.64,0.54,0.82,0.89c0.18,0.35,0.27,0.76,0.27,1.22c0,0.29-0.03,0.57-0.1,0.83c-0.07,0.26-0.17,0.51-0.3,0.74
		c-0.13,0.23-0.29,0.44-0.47,0.61c-0.18,0.17-0.36,0.31-0.54,0.41s-0.38,0.19-0.61,0.26c-0.23,0.07-0.54,0.16-0.92,0.27l0.53,1.03
		c0.17,0.33,0.5,0.92,0.98,1.77l0.79,1.38c0.04,0.07,0.17,0.31,0.38,0.71c-0.64-0.01-1.06-0.02-1.26-0.02
		c-0.25,0-0.69,0.01-1.32,0.02l-0.87-2.08c-0.15-0.32-0.33-0.69-0.55-1.12l-0.94-1.9c-0.09-0.18-0.22-0.44-0.39-0.8
		c0.35,0.06,0.67,0.09,0.95,0.09c0.45,0,0.86-0.07,1.23-0.22c0.37-0.15,0.65-0.37,0.85-0.68c0.2-0.3,0.3-0.64,0.3-1
		c0-0.22-0.04-0.42-0.13-0.61s-0.23-0.35-0.43-0.48c-0.2-0.13-0.45-0.21-0.73-0.25c-0.28-0.04-0.56-0.05-0.84-0.05
		c-0.16,0-0.37,0-0.64,0.01c-0.27,0.01-0.6,0.01-1,0.01l-0.14,3.21l-0.15,5.86l-1.21-0.02
		C590.71,404.24,590.32,404.25,589.72,404.26z"/>
	<path class="st50" d="M598.42,404.26c0.54-0.96,1.18-2.14,1.91-3.55l2.06-3.95c0.64-1.22,1.17-2.27,1.59-3.16
		c0.68,0.01,1.16,0.02,1.44,0.02c0.5,0,0.98,0,1.45-0.02l1.12,3.2l2.43,6.61l0.34,0.86l-1.17-0.02c-0.27,0-0.73,0.01-1.37,0.02
		c-0.13-0.46-0.32-1.09-0.59-1.88c-0.27-0.79-0.5-1.42-0.68-1.91h-4.11c-0.61,1.24-1.2,2.5-1.78,3.79l-1.27-0.02
		C599.53,404.24,599.08,404.25,598.42,404.26z M603.52,398.84h2.99l-1.23-3.62l-0.63,1.31L603.52,398.84z"/>
</g>
<g>
	<g>
		<line class="st51" x1="538" y1="492.67" x2="538" y2="491.67"/>
		<line class="st52" x1="538" y1="489.61" x2="538" y2="441.24"/>
		<line class="st51" x1="538" y1="440.21" x2="538" y2="439.21"/>
	</g>
</g>
<g>
	<g>
		<line class="st51" x1="538.22" y1="255" x2="538.22" y2="254"/>
		<line class="st53" x1="538.22" y1="251.94" x2="538.22" y2="195.24"/>
		<line class="st51" x1="538.22" y1="194.21" x2="538.22" y2="193.21"/>
	</g>
</g>
<g>
	<g>
		<line class="st51" x1="386.11" y1="73.1" x2="385.11" y2="73.1"/>
		<path class="st54" d="M383.12,73.1h-28.3c-16.84,0-30.49,13.65-30.49,30.49v166.91c0,16.84-13.65,30.49-30.49,30.49h-35.24"/>
		<line class="st51" x1="257.59" y1="301" x2="256.59" y2="301"/>
	</g>
</g>
<g>
	<g>
		<line class="st51" x1="667.32" y1="82.1" x2="668.32" y2="82.1"/>
		<path class="st55" d="M670.32,82.1h108.42c10.09,0,18.26,8.18,18.26,18.26v67.37c0,10.09,8.18,18.26,18.26,18.26h49.55"/>
		<line class="st51" x1="865.81" y1="186" x2="866.81" y2="186"/>
	</g>
</g>
<g>
</g>
<g>
</g>
<g>
</g>
<g>
</g>
<g>
</g>
<g>
</g>
<g>
</g>
<g>
</g>
<g>
</g>
<g>
</g>
<g>
</g>
<g>
</g>
<g>
</g>
<g>
</g>
<g>
</g>
</svg>
